HIERARCHY
ROOT hip
{
  OFFSET 0.00112043 5.09927 -9.65472
  CHANNELS 6 Xposition Yposition Zposition Zrotation Xrotation Yrotation
  JOINT abdomen
  {
    OFFSET 0 -1.186 -1.5018
    CHANNELS 3 Zrotation Xrotation Yrotation
    JOINT abdomen2
    {
      OFFSET 0 9.964 0.2134
      CHANNELS 3 Zrotation Xrotation Yrotation
      JOINT chest
      {
        OFFSET 0 13.134 -3.2573
        CHANNELS 3 Zrotation Xrotation Yrotation
        JOINT neck
        {
          OFFSET 0 20.686 -1.6905
          CHANNELS 3 Zrotation Xrotation Yrotation
          JOINT head
          {
            OFFSET 0 7.238 -0.1237
            CHANNELS 3 Zrotation Xrotation Yrotation
            End Site
            {
              OFFSET 0 0 0
            }
          }
        }
        JOINT lCollar
        {
          OFFSET 1.7069 20.075 5.0056
          CHANNELS 3 Zrotation Xrotation Yrotation
          JOINT lShldr
          {
            OFFSET 13.6458 -0.047 -4.849
            CHANNELS 3 Zrotation Xrotation Yrotation
            JOINT lForeArm
            {
              OFFSET 28.3255 -0.9759 2.2888
              CHANNELS 3 Zrotation Xrotation Yrotation
              JOINT lHand
              {
                OFFSET 22.1583 -0.53 10.8316
                CHANNELS 3 Zrotation Xrotation Yrotation
                JOINT lThumb1
                {
                  OFFSET 0.786 0.112 2.5817
                  CHANNELS 3 Zrotation Xrotation Yrotation
                  JOINT lThumb2
                  {
                    OFFSET 0.3601 -0.878 4.2331
                    CHANNELS 3 Zrotation Xrotation Yrotation
                    JOINT lThumb2_End
                    {
                      OFFSET 1.8127 -1.216 2.2227
                      CHANNELS 3 Zrotation Xrotation Yrotation
                      End Site
                      {
                        OFFSET 0.0181 -0.0122 0.0222
                      }
                    }
                  }
                }
                JOINT lCarpal1
                {
                  OFFSET 0.9571 1.114 1.7695
                  CHANNELS 3 Zrotation Xrotation Yrotation
                  JOINT lIndex1
                  {
                    OFFSET 4.1246 0.487 4.1451
                    CHANNELS 3 Zrotation Xrotation Yrotation
                    JOINT lIndex2
                    {
                      OFFSET 3.4052 -1.454 2.7682
                      CHANNELS 3 Zrotation Xrotation Yrotation
                      JOINT lIndex2_End
                      {
                        OFFSET 1.4531 -1.795 1.2713
                        CHANNELS 3 Zrotation Xrotation Yrotation
                        End Site
                        {
                          OFFSET 0.0145 -0.0179 0.0127
                        }
                      }
                    }
                  }
                  JOINT lMid1
                  {
                    OFFSET 5.6954 0.21 2.1184
                    CHANNELS 3 Zrotation Xrotation Yrotation
                    JOINT lMid2
                    {
                      OFFSET 3.9766 -1.54 2.3863
                      CHANNELS 3 Zrotation Xrotation Yrotation
                      JOINT lMid2_End
                      {
                        OFFSET 1.4042 -1.926 1.125
                        CHANNELS 3 Zrotation Xrotation Yrotation
                        End Site
                        {
                          OFFSET 0.014 -0.0193 0.0113
                        }
                      }
                    }
                  }
                }
                JOINT lCarpal2
                {
                  OFFSET 2.0956 0.66 -0.3894
                  CHANNELS 3 Zrotation Xrotation Yrotation
                  JOINT lRing1
                  {
                    OFFSET 5.0395 -0.09 2.4971
                    CHANNELS 3 Zrotation Xrotation Yrotation
                    JOINT lRing2
                    {
                      OFFSET 3.7921 -1.552 1.4806
                      CHANNELS 3 Zrotation Xrotation Yrotation
                      JOINT lRing2_End
                      {
                        OFFSET 1.4655 -1.808 0.9609
                        CHANNELS 3 Zrotation Xrotation Yrotation
                        End Site
                        {
                          OFFSET 0.0147 -0.0181 0.0096
                        }
                      }
                    }
                  }
                  JOINT lPinky1
                  {
                    OFFSET 4.9141 -1.269 0.3591
                    CHANNELS 3 Zrotation Xrotation Yrotation
                    JOINT lPinky2
                    {
                      OFFSET 3.1477 -1.685 0.8462
                      CHANNELS 3 Zrotation Xrotation Yrotation
                      JOINT lPinky2_End
                      {
                        OFFSET 0.8055 -1.585 0.7955
                        CHANNELS 3 Zrotation Xrotation Yrotation
                        End Site
                        {
                          OFFSET 0.0081 -0.0158 0.008
                        }
                      }
                    }
                  }
                }
              }
            }
          }
        }
        JOINT rCollar
        {
          OFFSET -1.7069 20.075 5.0056
          CHANNELS 3 Zrotation Xrotation Yrotation
          JOINT rShldr
          {
            OFFSET -13.6458 -0.047 -4.849
            CHANNELS 3 Zrotation Xrotation Yrotation
            JOINT rForeArm
            {
              OFFSET -28.3255 -0.9759 2.2888
              CHANNELS 3 Zrotation Xrotation Yrotation
              JOINT rHand
              {
                OFFSET -22.1583 -0.53 10.8316
                CHANNELS 3 Zrotation Xrotation Yrotation
                JOINT rThumb1
                {
                  OFFSET -0.786 0.112 2.5817
                  CHANNELS 3 Zrotation Xrotation Yrotation
                  JOINT rThumb2
                  {
                    OFFSET -0.3601 -0.878 4.2331
                    CHANNELS 3 Zrotation Xrotation Yrotation
                    JOINT rThumb2_End
                    {
                      OFFSET -1.8127 -1.216 2.2227
                      CHANNELS 3 Zrotation Xrotation Yrotation
                      End Site
                      {
                        OFFSET -0.0181 -0.0122 0.0222
                      }
                    }
                  }
                }
                JOINT rCarpal1
                {
                  OFFSET -0.9571 1.114 1.7695
                  CHANNELS 3 Zrotation Xrotation Yrotation
                  JOINT rIndex1
                  {
                    OFFSET -4.1246 0.487 4.1451
                    CHANNELS 3 Zrotation Xrotation Yrotation
                    JOINT rIndex2
                    {
                      OFFSET -3.4052 -1.454 2.7682
                      CHANNELS 3 Zrotation Xrotation Yrotation
                      JOINT rIndex2_End
                      {
                        OFFSET -1.4531 -1.795 1.2713
                        CHANNELS 3 Zrotation Xrotation Yrotation
                        End Site
                        {
                          OFFSET -0.0145 -0.018 0.0127
                        }
                      }
                    }
                  }
                  JOINT rMid1
                  {
                    OFFSET -5.6954 0.21 2.1184
                    CHANNELS 3 Zrotation Xrotation Yrotation
                    JOINT rMid2
                    {
                      OFFSET -3.9766 -1.54 2.3863
                      CHANNELS 3 Zrotation Xrotation Yrotation
                      JOINT rMid2_End
                      {
                        OFFSET -1.4042 -1.926 1.125
                        CHANNELS 3 Zrotation Xrotation Yrotation
                        End Site
                        {
                          OFFSET -0.014 -0.0193 0.0113
                        }
                      }
                    }
                  }
                }
                JOINT rCarpal2
                {
                  OFFSET -2.0956 0.66 -0.3894
                  CHANNELS 3 Zrotation Xrotation Yrotation
                  JOINT rRing1
                  {
                    OFFSET -5.0395 -0.09 2.4971
                    CHANNELS 3 Zrotation Xrotation Yrotation
                    JOINT rRing2
                    {
                      OFFSET -3.7921 -1.552 1.4806
                      CHANNELS 3 Zrotation Xrotation Yrotation
                      JOINT rRing2_End
                      {
                        OFFSET -1.4655 -1.808 0.9609
                        CHANNELS 3 Zrotation Xrotation Yrotation
                        End Site
                        {
                          OFFSET -0.0147 -0.0181 0.0096
                        }
                      }
                    }
                  }
                  JOINT rPinky1
                  {
                    OFFSET -4.9141 -1.269 0.3592
                    CHANNELS 3 Zrotation Xrotation Yrotation
                    JOINT rPinky2
                    {
                      OFFSET -3.1477 -1.685 0.8462
                      CHANNELS 3 Zrotation Xrotation Yrotation
                      JOINT rPinky2_End
                      {
                        OFFSET -0.8055 -1.585 0.7955
                        CHANNELS 3 Zrotation Xrotation Yrotation
                        End Site
                        {
                          OFFSET -0.0081 -0.0158 0.008
                        }
                      }
                    }
                  }
                }
              }
            }
          }
        }
      }
    }
  }
  JOINT lThigh
  {
    OFFSET 8.367 -8.2066 0.5982
    CHANNELS 3 Zrotation Xrotation Yrotation
    JOINT lShin
    {
      OFFSET 2.1923 -43.463 -0.4932
      CHANNELS 3 Zrotation Xrotation Yrotation
      JOINT lFoot
      {
        OFFSET 0.7333 -45.8593 -2.6451
        CHANNELS 3 Zrotation Xrotation Yrotation
        End Site
        {
          OFFSET 2.6618 -4.2699 12.3931
        }
      }
    }
  }
  JOINT rThigh
  {
    OFFSET -8.367 -8.2066 0.5982
    CHANNELS 3 Zrotation Xrotation Yrotation
    JOINT rShin
    {
      OFFSET -2.1923 -43.463 -0.4931
      CHANNELS 3 Zrotation Xrotation Yrotation
      JOINT rFoot
      {
        OFFSET -0.7333 -45.8593 -2.6451
        CHANNELS 3 Zrotation Xrotation Yrotation
        End Site
        {
          OFFSET -2.6618 -4.2699 12.3931
        }
      }
    }
  }
}
MOTION
Frames:	4
Frame Time:	0.0333333
0 91.7903 2.51682 0 0 -0 0 0 -0 0 0 -0 0 0 -0 7.95514e-011 -1.85141e-022 -0.00281655 -3.22428e-026 -8.11872e-032 -3.88251e-019 0 0 -0.00281655 1.66051 0.0835086 5.75766 -0.0175111 0.895433 15.7816 4.47266e-016 0 -6.36111e-015 4.47266e-016 -1.98785e-016 -6.36111e-015 9.93923e-017 0 -3.18055e-015 4.96962e-016 -1.98785e-016 -3.18055e-015 0 0 -3.18055e-015 -3.47873e-016 -3.97569e-016 6.36111e-015 1.98785e-016 0 -3.18055e-015 3.97569e-016 0 -6.36111e-015 -3.47873e-016 -3.97569e-016 6.36111e-015 1.98785e-016 0 -3.18055e-015 3.97569e-016 0 -6.36111e-015 0 0 -3.18055e-015 -3.47873e-016 -3.97569e-016 6.36111e-015 1.98785e-016 0 -3.18055e-015 3.97569e-016 0 -6.36111e-015 -3.47873e-016 -3.97569e-016 6.36111e-015 1.98785e-016 0 -3.18055e-015 3.97569e-016 0 -6.36111e-015 0 0 -0.00281655 -1.4496 0.0636048 -5.0245 -1.74811 1.20616 -16.8394 1.19271e-015 -5.96354e-016 6.36111e-015 6.95746e-016 -3.97569e-016 6.36111e-015 8.94531e-016 -1.98785e-016 6.36111e-015 1.49089e-015 -3.97569e-016 6.36111e-015 2.98177e-016 -5.96354e-016 6.36111e-015 4.96962e-016 0 9.54166e-015 5.96354e-016 -3.97569e-016 6.36111e-015 3.97569e-016 -7.95139e-016 6.36111e-015 4.96962e-016 0 9.54166e-015 5.96354e-016 -3.97569e-016 6.36111e-015 3.97569e-016 -7.95139e-016 6.36111e-015 2.98177e-016 -5.96354e-016 6.36111e-015 4.96962e-016 0 9.54166e-015 5.96354e-016 -3.97569e-016 6.36111e-015 3.97569e-016 -7.95139e-016 6.36111e-015 4.96962e-016 0 9.54166e-015 5.96354e-016 -3.97569e-016 6.36111e-015 3.97569e-016 -7.95139e-016 6.36111e-015 -4.66111 -0.998717 0.12318 0.00986924 1.54847 0.176523 4.65186 -0.572283 -0.254274 4.66111 -0.998765 -0.123176 -0.00986867 1.54869 -0.176537 -4.65186 -0.572453 0.25427 
3.64497 55.1472 13.6013 0 0 -30.3706 2.16672 -0.693081 0.0220566 4.33419 -1.38483 0.070307 4.33418 -1.38483 0.0703233 -0.000263955 15.5534 7.08473e-005 1.27401 12.8296 -13.0098 -27.1327 2.12015 1.30064 -23.3552 -15.5101 -1.77122 -22.9309 20.7331 17.5046 13.8295 -5.35536 0.902813 -6.36111e-015 9.54166e-015 1.59028e-015 -2.44394e-006 -3.71391e-006 -1.74502e-006 3.17492e-007 -1.53946e-006 -6.15602e-007 7.95139e-016 3.18055e-015 1.59028e-015 -1.11319e-014 -3.18055e-015 1.59028e-015 -2.44394e-006 -3.71391e-006 -1.74502e-006 3.17492e-007 -1.53946e-006 -6.15602e-007 -1.11319e-014 -3.18055e-015 1.59028e-015 -2.44394e-006 -3.71391e-006 -1.74502e-006 3.17492e-007 -1.53946e-006 -6.15602e-007 7.95139e-016 3.18055e-015 1.59028e-015 -1.11319e-014 -3.18055e-015 1.59028e-015 -2.44394e-006 -3.71391e-006 -1.74502e-006 3.17492e-007 -1.53946e-006 -6.15602e-007 -1.11319e-014 -3.18055e-015 1.59028e-015 -2.44394e-006 -3.71391e-006 -1.74502e-006 3.17492e-007 -1.53946e-006 -6.15602e-007 4.56124 0.671808 -3.73307 17.8931 -1.10143 -17.3485 25.7117 -13.421 20.3204 4.80406 1.97094 0.0396694 -1.68919e-006 -2.6709e-006 3.00869e-006 1.07445e-006 1.38778e-006 2.7696e-006 1.07445e-006 1.38778e-006 2.7696e-006 -1.76556e-031 -3.18055e-015 -3.18055e-015 -1.68919e-006 -2.6709e-006 3.00869e-006 1.07445e-006 1.38778e-006 2.7696e-006 1.07445e-006 1.38778e-006 2.7696e-006 -1.68919e-006 -2.6709e-006 3.00869e-006 1.07445e-006 1.38778e-006 2.7696e-006 1.07445e-006 1.38778e-006 2.7696e-006 -1.76556e-031 -3.18055e-015 -3.18055e-015 -1.68919e-006 -2.6709e-006 3.00869e-006 1.07445e-006 1.38778e-006 2.7696e-006 1.07445e-006 1.38778e-006 2.7696e-006 -1.68919e-006 -2.6709e-006 3.00869e-006 1.07445e-006 1.38778e-006 2.7696e-006 1.07445e-006 1.38778e-006 2.7696e-006 9.01823 -18.7635 12.1908 52.4568 84.088 -55.4591 14.3438 46.823 4.24013 -9.02133 -18.7633 -12.1939 -52.4618 84.0871 55.4605 -14.3469 46.8232 -4.24111 
5.21612 38.2683 17.3295 0 0 -44.0374 3.13112 -0.960817 0.0196037 6.26389 -1.91913 0.0916775 6.26388 -1.91913 0.0916858 -5.17677e-005 22.553 5.50367e-005 3.79057 18.1611 -19.3699 -39.3738 3.07333 1.88735 -36.0789 -22.2997 -5.63029 -33.7061 29.5494 18.4577 20.1239 -7.6617 1.73043 1.52819e-006 3.38229e-006 -5.20521e-006 -3.18055e-015 -3.18055e-015 -0 0 3.18055e-015 -0 4.77083e-015 -3.18055e-015 1.59028e-015 1.52819e-006 3.38229e-006 -5.20521e-006 1.59028e-015 0 -3.18055e-015 -1.59028e-015 -9.54166e-015 -0 1.52819e-006 3.38229e-006 -5.20521e-006 1.59028e-015 0 -3.18055e-015 -1.59028e-015 -9.54166e-015 -0 4.77083e-015 -3.18055e-015 1.59028e-015 1.52819e-006 3.38229e-006 -5.20521e-006 1.59028e-015 0 -3.18055e-015 -1.59028e-015 -9.54166e-015 -0 1.52819e-006 3.38229e-006 -5.20521e-006 1.59028e-015 0 -3.18055e-015 -1.59028e-015 -9.54166e-015 -0 6.57441 0.974658 -5.32118 26.3127 -1.55878 -22.7827 43.5546 -14.058 37.8225 6.98839 2.66707 0.0418513 -1.86934e-006 -1.61619e-006 -2.13418e-006 -3.18055e-015 4.77083e-015 1.19271e-015 -1.86934e-006 -1.61619e-006 -2.13418e-006 -1.21382e-031 1.59028e-015 4.37326e-015 -1.86934e-006 -1.61619e-006 -2.13418e-006 -3.18055e-015 3.18055e-015 1.59028e-015 -1.86934e-006 -1.61619e-006 -2.13418e-006 -1.86934e-006 -1.61619e-006 -2.13418e-006 -3.18055e-015 3.18055e-015 1.59028e-015 -1.86934e-006 -1.61619e-006 -2.13418e-006 -1.21382e-031 1.59028e-015 4.37326e-015 -1.86934e-006 -1.61619e-006 -2.13418e-006 -3.18055e-015 3.18055e-015 1.59028e-015 -1.86934e-006 -1.61619e-006 -2.13418e-006 -1.86934e-006 -1.61619e-006 -2.13418e-006 -3.18055e-015 3.18055e-015 1.59028e-015 -1.86934e-006 -1.61619e-006 -2.13418e-006 16.65 -27.8153 21.4627 159.283 53.0933 -159.517 11.3688 69.4415 12.2957 -16.6557 -27.8141 -21.4678 -159.286 53.0945 159.514 -11.3742 69.4416 -12.2967 
4.87283 41.9454 16.5193 0 0 -41.0003 2.89141 -0.809231 0.0303764 5.78412 -1.6159 0.101529 5.78411 -1.6159 0.10153 -0.000188261 20.997 -7.76949e-007 3.06494 17.2311 -17.8986 -36.6519 2.8616 1.75686 -33.1642 -20.8109 -4.73175 -31.0502 27.5226 17.9049 18.7196 -7.15722 1.52417 -9.54166e-015 6.36111e-015 -9.54166e-015 5.39676e-007 -1.36424e-006 -7.97362e-007 1.59028e-015 -1.90833e-014 -1.59028e-015 -4.77083e-015 6.36111e-015 -9.54166e-015 -4.77083e-015 -3.18055e-015 7.95139e-015 5.39676e-007 -1.36424e-006 -7.97362e-007 -1.59028e-015 -9.54166e-015 -1.59028e-015 -4.77083e-015 -3.18055e-015 7.95139e-015 5.39676e-007 -1.36424e-006 -7.97362e-007 -1.59028e-015 -9.54166e-015 -1.59028e-015 -4.77083e-015 6.36111e-015 -9.54166e-015 -4.77083e-015 -3.18055e-015 7.95139e-015 5.39676e-007 -1.36424e-006 -7.97362e-007 -1.59028e-015 -9.54166e-015 -1.59028e-015 -4.77083e-015 -3.18055e-015 7.95139e-015 5.39676e-007 -1.36424e-006 -7.97362e-007 -1.59028e-015 -9.54166e-015 -1.59028e-015 5.97474 0.913674 -4.76339 24.222 -1.42327 -21.319 39.4187 -14.5832 34.273 6.55015 2.08886 0.127666 2.64834e-031 6.36111e-015 -2.38542e-015 1.59028e-015 0 -1.59028e-015 -1.68974e-006 -1.5824e-006 -2.30466e-006 -7.95139e-016 3.18055e-015 -2.5842e-015 2.38542e-015 0 -4.57205e-015 3.97569e-015 0 2.38542e-015 -1.68974e-006 -1.5824e-006 -2.30466e-006 2.38542e-015 0 -4.57205e-015 3.97569e-015 0 2.38542e-015 -1.68974e-006 -1.5824e-006 -2.30466e-006 -7.95139e-016 3.18055e-015 -2.5842e-015 2.38542e-015 0 -4.57205e-015 3.97569e-015 0 2.38542e-015 -1.68974e-006 -1.5824e-006 -2.30466e-006 2.38542e-015 0 -4.57205e-015 3.97569e-015 0 2.38542e-015 -1.68974e-006 -1.5824e-006 -2.30466e-006 14.9085 -25.6339 18.8361 157.134 61.7102 -158.403 13.5953 64.1557 9.02843 -14.9135 -25.6329 -18.8406 -157.136 61.7111 158.4 -13.5999 64.1559 -9.0296 
